# xmcd
#
# Track frame offsets:
#	150
#	11027
#	22551
#	32968
#	43545
#	54480
#	66052
#	80681
#
# Disc length: 1221 seconds
#
# Revision: 1
# Processed by: cddbd v1.5.2PL0 Copyright (c) Steve Scherf et al.
# Submitted via: audiograbber 1.83.01
#
DISCID=5a04c308
DTITLE=Patsy Cline - Stop, Look, and Listen
DYEAR=1992
DGENRE=Country
TTITLE0=Stop, Look and Listen
TTITLE1=The Heart You Break May Be Your Own
TTITLE2=Three Cigarettes in an Ashtray
TTITLE3=Walking Dream
TTITLE4=Honky Tonk Merry Go Round
TTITLE5=Cry Not for Me
TTITLE6=They You'll Know
TTITLE7=I Cried All the Way to the Altar
EXTD=YEAR: 1992
EXTT0=
EXTT1=
EXTT2=
EXTT3=
EXTT4=
EXTT5=
EXTT6=
EXTT7=
PLAYORDER=
